<svg width="160" height="66" viewBox="0 0 160 66" fill="none" xmlns="http://www.w3.org/2000/svg">
<path d="M10.98 41.08H24.42V49H0.72V6.88H10.98V41.08ZM44.5538 49.48C41.2738 49.48 38.3138 48.78 35.6738 47.38C33.0738 45.98 31.0138 43.98 29.4938 41.38C28.0138 38.78 27.2738 35.74 27.2738 32.26C27.2738 28.82 28.0338 25.8 29.5537 23.2C31.0738 20.56 33.1538 18.54 35.7938 17.14C38.4338 15.74 41.3938 15.04 44.6738 15.04C47.9538 15.04 50.9138 15.74 53.5538 17.14C56.1938 18.54 58.2738 20.56 59.7938 23.2C61.3138 25.8 62.0738 28.82 62.0738 32.26C62.0738 35.7 61.2938 38.74 59.7338 41.38C58.2138 43.98 56.1138 45.98 53.4338 47.38C50.7938 48.78 47.8338 49.48 44.5538 49.48ZM44.5538 40.6C46.5138 40.6 48.1738 39.88 49.5338 38.44C50.9338 37 51.6338 34.94 51.6338 32.26C51.6338 29.58 50.9538 27.52 49.5938 26.08C48.2738 24.64 46.6338 23.92 44.6738 23.92C42.6738 23.92 41.0138 24.64 39.6938 26.08C38.3738 27.48 37.7138 29.54 37.7138 32.26C37.7138 34.94 38.3538 37 39.6338 38.44C40.9538 39.88 42.5938 40.6 44.5538 40.6ZM80.2369 15.04C82.5969 15.04 84.6569 15.52 86.4169 16.48C88.2169 17.44 89.5969 18.7 90.5569 20.26V15.52H100.817V48.94C100.817 52.02 100.197 54.8 98.9569 57.28C97.7569 59.8 95.8969 61.8 93.3769 63.28C90.8969 64.76 87.7969 65.5 84.0769 65.5C79.1169 65.5 75.0969 64.32 72.0169 61.96C68.9369 59.64 67.1769 56.48 66.7369 52.48H76.8769C77.1969 53.76 77.9569 54.76 79.1569 55.48C80.3569 56.24 81.8369 56.62 83.5969 56.62C85.7169 56.62 87.3969 56 88.6369 54.76C89.9169 53.56 90.5569 51.62 90.5569 48.94V44.2C89.5569 45.76 88.1769 47.04 86.4169 48.04C84.6569 49 82.5969 49.48 80.2369 49.48C77.4769 49.48 74.9769 48.78 72.7369 47.38C70.4969 45.94 68.7169 43.92 67.3969 41.32C66.1169 38.68 65.4769 35.64 65.4769 32.2C65.4769 28.76 66.1169 25.74 67.3969 23.14C68.7169 20.54 70.4969 18.54 72.7369 17.14C74.9769 15.74 77.4769 15.04 80.2369 15.04ZM90.5569 32.26C90.5569 29.7 89.8369 27.68 88.3969 26.2C86.9969 24.72 85.2769 23.98 83.2369 23.98C81.1969 23.98 79.4569 24.72 78.0169 26.2C76.6169 27.64 75.9169 29.64 75.9169 32.2C75.9169 34.76 76.6169 36.8 78.0169 38.32C79.4569 39.8 81.1969 40.54 83.2369 40.54C85.2769 40.54 86.9969 39.8 88.3969 38.32C89.8369 36.84 90.5569 34.82 90.5569 32.26Z" fill="#47E887"/>
<path d="M113.4 12.04C111.6 12.04 110.12 11.52 108.96 10.48C107.84 9.4 107.28 8.08 107.28 6.52C107.28 4.92 107.84 3.6 108.96 2.56C110.12 1.48 111.6 0.939996 113.4 0.939996C115.16 0.939996 116.6 1.48 117.72 2.56C118.88 3.6 119.46 4.92 119.46 6.52C119.46 8.08 118.88 9.4 117.72 10.48C116.6 11.52 115.16 12.04 113.4 12.04ZM118.5 15.52V49H108.24V15.52H118.5ZM146.335 15.16C150.255 15.16 153.375 16.44 155.695 19C158.055 21.52 159.235 25 159.235 29.44V49H149.035V30.82C149.035 28.58 148.455 26.84 147.295 25.6C146.135 24.36 144.575 23.74 142.615 23.74C140.655 23.74 139.095 24.36 137.935 25.6C136.775 26.84 136.195 28.58 136.195 30.82V49H125.935V15.52H136.195V19.96C137.235 18.48 138.635 17.32 140.395 16.48C142.155 15.6 144.135 15.16 146.335 15.16Z" fill="#EDC801"/>
</svg>
