<svg width="173" height="100" viewBox="0 0 173 100" fill="none" xmlns="http://www.w3.org/2000/svg">
<rect x="145.838" y="77.1657" width="4.32432" height="16.5897" fill="#EDC801"/>
<path fill-rule="evenodd" clip-rule="evenodd" d="M128 65C135.733 65 142.756 68.2376 148 73.5136C153.244 68.2376 160.267 65 168 65V91.38C160.267 91.38 153.244 94.6416 148 99.8936C142.756 94.6176 135.733 91.38 128 91.38V65ZM148 93.6583C152.6 90.0131 157.933 87.7108 163.555 86.8954V70.228C158.889 71.1393 154.555 73.4656 151.022 77.0149L148 80.0606L144.978 76.9909C141.444 73.4416 137.111 71.1154 132.444 70.204V86.8714C138.067 87.6868 143.422 90.0131 148 93.6583Z" fill="#EDC801"/>
<path d="M31.14 6.88V15.1H13.98V23.98H26.82V31.96H13.98V49H3.72V6.88H31.14ZM41.6925 12.04C39.8925 12.04 38.4125 11.52 37.2525 10.48C36.1325 9.4 35.5725 8.08 35.5725 6.52C35.5725 4.92 36.1325 3.6 37.2525 2.56C38.4125 1.48 39.8925 0.939996 41.6925 0.939996C43.4525 0.939996 44.8925 1.48 46.0125 2.56C47.1725 3.6 47.7525 4.92 47.7525 6.52C47.7525 8.08 47.1725 9.4 46.0125 10.48C44.8925 11.52 43.4525 12.04 41.6925 12.04ZM46.7925 15.52V49H36.5325V15.52H46.7925ZM74.6278 15.16C78.5478 15.16 81.6678 16.44 83.9878 19C86.3478 21.52 87.5278 25 87.5278 29.44V49H77.3278V30.82C77.3278 28.58 76.7478 26.84 75.5878 25.6C74.4278 24.36 72.8678 23.74 70.9078 23.74C68.9478 23.74 67.3878 24.36 66.2278 25.6C65.0678 26.84 64.4878 28.58 64.4878 30.82V49H54.2278V15.52H64.4878V19.96C65.5278 18.48 66.9278 17.32 68.6878 16.48C70.4478 15.6 72.4278 15.16 74.6278 15.16ZM115.058 15.16C118.978 15.16 122.098 16.44 124.418 19C126.778 21.52 127.958 25 127.958 29.44V49H117.758V30.82C117.758 28.58 117.178 26.84 116.018 25.6C114.858 24.36 113.298 23.74 111.338 23.74C109.378 23.74 107.818 24.36 106.658 25.6C105.498 26.84 104.918 28.58 104.918 30.82V49H94.6575V15.52H104.918V19.96C105.958 18.48 107.358 17.32 109.118 16.48C110.878 15.6 112.858 15.16 115.058 15.16ZM133.047 32.2C133.047 28.76 133.687 25.74 134.967 23.14C136.287 20.54 138.067 18.54 140.307 17.14C142.547 15.74 145.047 15.04 147.807 15.04C150.167 15.04 152.227 15.52 153.987 16.48C155.787 17.44 157.167 18.7 158.127 20.26V15.52H168.387V49H158.127V44.26C157.127 45.82 155.727 47.08 153.927 48.04C152.167 49 150.107 49.48 147.747 49.48C145.027 49.48 142.547 48.78 140.307 47.38C138.067 45.94 136.287 43.92 134.967 41.32C133.687 38.68 133.047 35.64 133.047 32.2ZM158.127 32.26C158.127 29.7 157.407 27.68 155.967 26.2C154.567 24.72 152.847 23.98 150.807 23.98C148.767 23.98 147.027 24.72 145.587 26.2C144.187 27.64 143.487 29.64 143.487 32.2C143.487 34.76 144.187 36.8 145.587 38.32C147.027 39.8 148.767 40.54 150.807 40.54C152.847 40.54 154.567 39.8 155.967 38.32C157.407 36.84 158.127 34.82 158.127 32.26Z" fill="#47E887"/>
<path d="M35.82 69.44C35.82 71.88 35.26 74.12 34.14 76.16C33.02 78.16 31.3 79.78 28.98 81.02C26.66 82.26 23.78 82.88 20.34 82.88H13.98V98H3.72V55.88H20.34C23.7 55.88 26.54 56.46 28.86 57.62C31.18 58.78 32.92 60.38 34.08 62.42C35.24 64.46 35.82 66.8 35.82 69.44ZM19.56 74.72C21.52 74.72 22.98 74.26 23.94 73.34C24.9 72.42 25.38 71.12 25.38 69.44C25.38 67.76 24.9 66.46 23.94 65.54C22.98 64.62 21.52 64.16 19.56 64.16H13.98V74.72H19.56ZM56.4014 98.48C53.1214 98.48 50.1614 97.78 47.5214 96.38C44.9214 94.98 42.8614 92.98 41.3414 90.38C39.8614 87.78 39.1214 84.74 39.1214 81.26C39.1214 77.82 39.8814 74.8 41.4014 72.2C42.9214 69.56 45.0014 67.54 47.6414 66.14C50.2814 64.74 53.2414 64.04 56.5214 64.04C59.8014 64.04 62.7614 64.74 65.4014 66.14C68.0414 67.54 70.1214 69.56 71.6414 72.2C73.1614 74.8 73.9214 77.82 73.9214 81.26C73.9214 84.7 73.1414 87.74 71.5814 90.38C70.0614 92.98 67.9614 94.98 65.2814 96.38C62.6414 97.78 59.6814 98.48 56.4014 98.48ZM56.4014 89.6C58.3614 89.6 60.0214 88.88 61.3814 87.44C62.7814 86 63.4814 83.94 63.4814 81.26C63.4814 78.58 62.8014 76.52 61.4414 75.08C60.1214 73.64 58.4814 72.92 56.5214 72.92C54.5214 72.92 52.8614 73.64 51.5414 75.08C50.2214 76.48 49.5614 78.54 49.5614 81.26C49.5614 83.94 50.2014 86 51.4814 87.44C52.8014 88.88 54.4414 89.6 56.4014 89.6ZM89.6245 70.1C90.8245 68.26 92.3245 66.82 94.1245 65.78C95.9245 64.7 97.9245 64.16 100.125 64.16V75.02H97.3045C94.7445 75.02 92.8245 75.58 91.5445 76.7C90.2645 77.78 89.6245 79.7 89.6245 82.46V98H79.3645V64.52H89.6245V70.1ZM123.689 89.3V98H118.469C114.749 98 111.849 97.1 109.769 95.3C107.689 93.46 106.649 90.48 106.649 86.36V73.04H102.569V64.52H106.649V56.36H116.909V64.52H123.629V73.04H116.909V86.48C116.909 87.48 117.149 88.2 117.629 88.64C118.109 89.08 118.909 89.3 120.029 89.3H123.689Z" fill="#EDC801"/>
</svg>
