<svg width="172" height="50" viewBox="0 0 172 50" fill="none" xmlns="http://www.w3.org/2000/svg">
<path d="M13.22 37.315C10.91 37.315 8.84 36.94 7.01 36.19C5.18 35.44 3.71 34.33 2.6 32.86C1.52 31.39 0.95 29.62 0.89 27.55H9.08C9.2 28.72 9.605 29.62 10.295 30.25C10.985 30.85 11.885 31.15 12.995 31.15C14.135 31.15 15.035 30.895 15.695 30.385C16.355 29.845 16.685 29.11 16.685 28.18C16.685 27.4 16.415 26.755 15.875 26.245C15.365 25.735 14.72 25.315 13.94 24.985C13.19 24.655 12.11 24.28 10.7 23.86C8.66 23.23 6.995 22.6 5.705 21.97C4.415 21.34 3.305 20.41 2.375 19.18C1.445 17.95 0.98 16.345 0.98 14.365C0.98 11.425 2.045 9.13 4.175 7.48C6.305 5.8 9.08 4.96 12.5 4.96C15.98 4.96 18.785 5.8 20.915 7.48C23.045 9.13 24.185 11.44 24.335 14.41H16.01C15.95 13.39 15.575 12.595 14.885 12.025C14.195 11.425 13.31 11.125 12.23 11.125C11.3 11.125 10.55 11.38 9.98 11.89C9.41 12.37 9.125 13.075 9.125 14.005C9.125 15.025 9.605 15.82 10.565 16.39C11.525 16.96 13.025 17.575 15.065 18.235C17.105 18.925 18.755 19.585 20.015 20.215C21.305 20.845 22.415 21.76 23.345 22.96C24.275 24.16 24.74 25.705 24.74 27.595C24.74 29.395 24.275 31.03 23.345 32.5C22.445 33.97 21.125 35.14 19.385 36.01C17.645 36.88 15.59 37.315 13.22 37.315ZM33.3455 9.28C31.9955 9.28 30.8855 8.89 30.0155 8.11C29.1755 7.3 28.7555 6.31 28.7555 5.14C28.7555 3.94 29.1755 2.95 30.0155 2.17C30.8855 1.36 31.9955 0.954997 33.3455 0.954997C34.6655 0.954997 35.7455 1.36 36.5855 2.17C37.4555 2.95 37.8905 3.94 37.8905 5.14C37.8905 6.31 37.4555 7.3 36.5855 8.11C35.7455 8.89 34.6655 9.28 33.3455 9.28ZM37.1705 11.89V37H29.4755V11.89H37.1705ZM52.287 11.53C54.057 11.53 55.602 11.89 56.922 12.61C58.272 13.33 59.307 14.275 60.027 15.445V11.89H67.722V36.955C67.722 39.265 67.257 41.35 66.327 43.21C65.427 45.1 64.032 46.6 62.142 47.71C60.282 48.82 57.957 49.375 55.167 49.375C51.447 49.375 48.432 48.49 46.122 46.72C43.812 44.98 42.492 42.61 42.162 39.61H49.767C50.007 40.57 50.577 41.32 51.477 41.86C52.377 42.43 53.487 42.715 54.807 42.715C56.397 42.715 57.657 42.25 58.587 41.32C59.547 40.42 60.027 38.965 60.027 36.955V33.4C59.277 34.57 58.242 35.53 56.922 36.28C55.602 37 54.057 37.36 52.287 37.36C50.217 37.36 48.342 36.835 46.662 35.785C44.982 34.705 43.647 33.19 42.657 31.24C41.697 29.26 41.217 26.98 41.217 24.4C41.217 21.82 41.697 19.555 42.657 17.605C43.647 15.655 44.982 14.155 46.662 13.105C48.342 12.055 50.217 11.53 52.287 11.53ZM60.027 24.445C60.027 22.525 59.487 21.01 58.407 19.9C57.357 18.79 56.067 18.235 54.537 18.235C53.007 18.235 51.702 18.79 50.622 19.9C49.572 20.98 49.047 22.48 49.047 24.4C49.047 26.32 49.572 27.85 50.622 28.99C51.702 30.1 53.007 30.655 54.537 30.655C56.067 30.655 57.357 30.1 58.407 28.99C59.487 27.88 60.027 26.365 60.027 24.445ZM88.589 11.62C91.529 11.62 93.869 12.58 95.609 14.5C97.379 16.39 98.264 19 98.264 22.33V37H90.614V23.365C90.614 21.685 90.179 20.38 89.309 19.45C88.439 18.52 87.269 18.055 85.799 18.055C84.329 18.055 83.159 18.52 82.289 19.45C81.419 20.38 80.984 21.685 80.984 23.365V37H73.289V11.89H80.984V15.22C81.764 14.11 82.814 13.24 84.134 12.61C85.454 11.95 86.939 11.62 88.589 11.62Z" fill="#47E887"/>
<path d="M120.707 5.41V24.31C120.707 26.2 121.172 27.655 122.102 28.675C123.032 29.695 124.397 30.205 126.197 30.205C127.997 30.205 129.377 29.695 130.337 28.675C131.297 27.655 131.777 26.2 131.777 24.31V5.41H139.472V24.265C139.472 27.085 138.872 29.47 137.672 31.42C136.472 33.37 134.852 34.84 132.812 35.83C130.802 36.82 128.552 37.315 126.062 37.315C123.572 37.315 121.337 36.835 119.357 35.875C117.407 34.885 115.862 33.415 114.722 31.465C113.582 29.485 113.012 27.085 113.012 24.265V5.41H120.707ZM152.571 15.445C153.321 14.275 154.356 13.33 155.676 12.61C156.996 11.89 158.541 11.53 160.311 11.53C162.381 11.53 164.256 12.055 165.936 13.105C167.616 14.155 168.936 15.655 169.896 17.605C170.886 19.555 171.381 21.82 171.381 24.4C171.381 26.98 170.886 29.26 169.896 31.24C168.936 33.19 167.616 34.705 165.936 35.785C164.256 36.835 162.381 37.36 160.311 37.36C158.571 37.36 157.026 37 155.676 36.28C154.356 35.56 153.321 34.63 152.571 33.49V48.97H144.876V11.89H152.571V15.445ZM163.551 24.4C163.551 22.48 163.011 20.98 161.931 19.9C160.881 18.79 159.576 18.235 158.016 18.235C156.486 18.235 155.181 18.79 154.101 19.9C153.051 21.01 152.526 22.525 152.526 24.445C152.526 26.365 153.051 27.88 154.101 28.99C155.181 30.1 156.486 30.655 158.016 30.655C159.546 30.655 160.851 30.1 161.931 28.99C163.011 27.85 163.551 26.32 163.551 24.4Z" fill="#EDC801"/>
</svg>
